# xmcd
#
# Track frame offsets: 
#        150
#        10086
#        21301
#        32403
#        42588
#        53432
#        63594
#        75625
#        86055
#        96785
#        108388
#        119131
#        130409
#        141966
#        158634
#        172053
#        185647
#        195003
#        203721
#        213754
#
# Disc length: 3018 seconds
#
# Revision: 2
# Processed by: cddbd v1.5.2PL0 Copyright (c) Steve Scherf et al.
# Submitted via: ExactAudioCopy v1.0b3
#
DISCID=110bc814
DTITLE=Johnny Cash - Ring of Fire - Greatest Hits - CD1
DYEAR=2008
DGENRE=Country
TTITLE0=Hey Porter
TTITLE1=I Love You Because
TTITLE2=I Just Thought You'd Like To Know
TTITLE3=Goodbye Little Darlin' Goodbye
TTITLE4=Cold Cold Heart
TTITLE5=I Could Never Be Ashamed Of You
TTITLE6=Port Of Lonely Hearts
TTITLE7=Straight A's In Love
TTITLE8=Train Of Love
TTITLE9=Thanks A Lot
TTITLE10=Belshazzar
TTITLE11=Don't Make Me Go
TTITLE12=Ring Of Fire
TTITLE13=Ghost Riders In The Sky
TTITLE14=Don't Take Your Guns To Town
TTITLE15=It Ain't Me
TTITLE16=Luther Played The Boogie
TTITLE17=Katy Too
TTITLE18=Get Rhythm
TTITLE19=San Quentin (live recording)
EXTD=
EXTT0=
EXTT1=
EXTT2=
EXTT3=
EXTT4=
EXTT5=
EXTT6=
EXTT7=
EXTT8=
EXTT9=
EXTT10=
EXTT11=
EXTT12=
EXTT13=
EXTT14=
EXTT15=
EXTT16=
EXTT17=
EXTT18=
EXTT19=
PLAYORDER=
